<svg id="Layer_1" data-name="Layer 1" xmlns="http://www.w3.org/2000/svg" viewBox="0 0 365.97 500"><title>logo</title><polygon points="182.98 134.5 114.77 77.78 182.98 21.75 161.53 0 91.42 59.03 21.32 0 0 21.75 68.08 78.33 0 134.5 21.32 156.25 49.6 132.39 14.81 250 48.37 250 58.55 214.48 121.26 214.48 131.16 250 168.57 250 133.96 133 161.53 156.25 182.98 134.5"/><polygon points="182.99 115.5 251.2 172.22 182.99 228.25 204.44 250 274.55 190.97 344.65 250 365.97 228.25 297.89 171.67 365.97 115.5 344.65 93.75 316.37 117.61 351.16 0 317.6 0 307.42 35.52 244.71 35.52 234.81 0 197.4 0 232.01 117 204.44 93.75 182.99 115.5"/><polygon points="365.97 384.5 297.76 327.78 365.97 271.75 344.52 250 274.41 309.04 204.31 250 182.99 271.75 251.06 328.33 182.99 384.5 204.31 406.25 232.59 382.39 197.8 500 231.36 500 241.54 464.48 304.25 464.48 314.15 500 351.56 500 316.95 383 344.52 406.25 365.97 384.5"/><polygon points="0 365.5 68.21 422.22 0 478.25 21.45 500 91.56 440.96 161.66 500 182.98 478.25 114.91 421.67 182.98 365.5 161.66 343.75 133.38 367.61 168.17 250 134.61 250 124.43 285.52 61.72 285.52 51.82 250 14.41 250 49.02 367 21.45 343.75 0 365.5"/></svg>